<svg width="192" height="192" viewBox="0 0 192 192" fill="none" xmlns="http://www.w3.org/2000/svg">
<rect x="7.62939e-06" width="192" height="192" rx="32" fill="url(#paint0_linear)"/>
<path d="M51.2 60.8C51.2 48.4288 61.2288 38.4 73.6 38.4H150.4C152.167 38.4 153.6 39.8327 153.6 41.6V48C153.6 60.3712 143.571 70.4 131.2 70.4H54.4C52.6327 70.4 51.2 68.9673 51.2 67.2V60.8Z" fill="white"/>
<path d="M44.8 102.4C44.8 90.0288 54.8288 80 67.2 80H118.4C120.167 80 121.6 81.4327 121.6 83.2V89.6C121.6 101.971 111.571 112 99.2 112H48C46.2327 112 44.8 110.567 44.8 108.8V102.4Z" fill="white"/>
<path d="M38.4 144C38.4 131.629 48.4288 121.6 60.8 121.6H86.4C88.1673 121.6 89.6 123.033 89.6 124.8V131.2C89.6 143.571 79.5712 153.6 67.2 153.6H41.6C39.8327 153.6 38.4 152.167 38.4 150.4V144Z" fill="white"/>
<defs>
<linearGradient id="paint0_linear" x1="192" y1="192" x2="7.62939e-06" y2="0" gradientUnits="userSpaceOnUse">
<stop stop-color="#FD2952"/>
<stop offset="1" stop-color="#FD4C5D"/>
</linearGradient>
</defs>
</svg>
