<svg width="60" height="60" viewBox="0 0 60 60" fill="none" xmlns="http://www.w3.org/2000/svg">
<rect x="7.62939e-06" width="60" height="60" rx="10" fill="url(#paint0_linear)"/>
<path d="M16 19C16 15.134 19.134 12 23 12H47C47.5523 12 48 12.4477 48 13V15C48 18.866 44.866 22 41 22H17C16.4477 22 16 21.5523 16 21V19Z" fill="white"/>
<path d="M14 32C14 28.134 17.134 25 21 25H37C37.5523 25 38 25.4477 38 26V28C38 31.866 34.866 35 31 35H15C14.4477 35 14 34.5523 14 34V32Z" fill="white"/>
<path d="M12 45C12 41.134 15.134 38 19 38H27C27.5523 38 28 38.4477 28 39V41C28 44.866 24.866 48 21 48H13C12.4477 48 12 47.5523 12 47V45Z" fill="white"/>
<defs>
<linearGradient id="paint0_linear" x1="60" y1="60" x2="7.62939e-06" y2="0" gradientUnits="userSpaceOnUse">
<stop stop-color="#FD2952"/>
<stop offset="1" stop-color="#FD4C5D"/>
</linearGradient>
</defs>
</svg>
