<svg width="24" height="24" viewBox="0 0 24 24" fill="none" xmlns="http://www.w3.org/2000/svg">
<rect x="7.62939e-06" y="-6.10352e-05" width="24" height="24" rx="4" fill="url(#paint0_linear)"/>
<path d="M6.4 7.59999C6.4 6.05359 7.6536 4.79999 9.2 4.79999H18.8C19.0209 4.79999 19.2 4.97907 19.2 5.19999V5.99999C19.2 7.54639 17.9464 8.79999 16.4 8.79999H6.8C6.57909 8.79999 6.4 8.6209 6.4 8.39999V7.59999Z" fill="white"/>
<path d="M5.60001 12.8C5.60001 11.2536 6.85361 10 8.4 10H14.8C15.0209 10 15.2 10.1791 15.2 10.4V11.2C15.2 12.7464 13.9464 14 12.4 14H6.00001C5.77909 14 5.60001 13.8209 5.60001 13.6V12.8Z" fill="white"/>
<path d="M4.8 17.9999C4.8 16.4536 6.05361 15.2 7.6 15.2H10.8C11.0209 15.2 11.2 15.379 11.2 15.6V16.4C11.2 17.9463 9.9464 19.1999 8.4 19.1999H5.2C4.97909 19.1999 4.8 19.0209 4.8 18.8V17.9999Z" fill="white"/>
<defs>
<linearGradient id="paint0_linear" x1="24" y1="23.9999" x2="7.62939e-06" y2="-6.10352e-05" gradientUnits="userSpaceOnUse">
<stop stop-color="#FD2952"/>
<stop offset="1" stop-color="#FD4C5D"/>
</linearGradient>
</defs>
</svg>
