<svg width="80" height="24" viewBox="0 0 80 24" fill="none" xmlns="http://www.w3.org/2000/svg">
<rect width="24" height="24" rx="4" fill="url(#paint0_linear)"/>
<path d="M6.39999 7.60005C6.39999 6.05365 7.6536 4.80005 9.19999 4.80005H18.8C19.0209 4.80005 19.2 4.97913 19.2 5.20005V6.00005C19.2 7.54645 17.9464 8.80005 16.4 8.80005H6.79999C6.57908 8.80005 6.39999 8.62096 6.39999 8.40005V7.60005Z" fill="white"/>
<path d="M5.60001 12.8C5.60001 11.2536 6.85361 10 8.40001 10H14.8C15.0209 10 15.2 10.1791 15.2 10.4V11.2C15.2 12.7464 13.9464 14 12.4 14H6.00001C5.77909 14 5.60001 13.8209 5.60001 13.6V12.8Z" fill="white"/>
<path d="M4.8 18C4.8 16.4536 6.05361 15.2 7.6 15.2H10.8C11.0209 15.2 11.2 15.379 11.2 15.6V16.4C11.2 17.9463 9.9464 19.2 8.4 19.2H5.2C4.97909 19.2 4.8 19.0209 4.8 18.8V18Z" fill="white"/>
<path d="M32.956 1H36.8247V3.52619H36.0997C34.8404 3.52619 33.9807 3.33683 33.5206 2.95813C33.1442 2.64625 32.956 2.1428 32.956 1.44776V1ZM28 1H31.7501V4.6623H34.5453V6.40657H31.7501V9.98663H28V1Z" fill="#333333"/>
<path d="M43.6697 1H44.2134C45.9374 1 47.076 1.73736 47.629 3.21208C47.852 3.81801 47.9635 4.51527 47.9635 5.30387C47.9635 6.63157 47.6963 7.72535 47.1619 8.58524C46.5299 9.59215 45.5471 10 44.2134 10H43.6697V1ZM41.9898 10C40.2751 10 39.1389 9.26245 38.5812 7.59615C38.3535 6.91894 38.2397 6.15484 38.2397 5.30387C38.2397 3.57074 38.7416 2.34774 39.7453 1.63489C40.3355 1.21163 41.0836 1 41.9898 1H42.5335V10H41.9898Z" fill="#333333"/>
<path d="M49.9222 4.23459C49.5412 3.7044 49.3507 2.94922 49.3507 1.96904V1H52.097L57.2831 6.44667C57.5759 6.75854 57.771 7.02141 57.8686 7.23527C57.9662 7.44912 58.0382 7.64516 58.0847 7.82337C58.1869 8.1798 58.2381 8.61865 58.2381 9.13993V10H55.5684L49.9432 4.23459H49.9222ZM55.2198 3.85365C55.2198 2.62843 55.4173 1.83092 55.8123 1.46113C56.0214 1.26509 56.2933 1.14034 56.6279 1.08688C56.9671 1.02896 57.3784 1 57.8617 1H58.2381V2.05592C58.2381 3.00491 57.9778 3.6398 57.4574 3.96058C57.0856 4.19226 56.4606 4.3081 55.5823 4.3081H55.2198V3.85365ZM49.3507 9.05305C49.3507 8.10406 49.6109 7.46694 50.1314 7.1417C50.5031 6.91448 51.1281 6.80087 52.0064 6.80087H52.3689V7.25532C52.3689 8.4939 52.1714 9.28918 51.7764 9.64116C51.5069 9.88175 51.1142 9.92871 50.5984 9.97327C50.3382 9.99109 50.0477 10 49.7271 10H49.3507V9.05305Z" fill="#333333"/>
<path d="M33.0048 14H33.5206C34.9008 14 35.9324 14.223 36.6155 14.8601C37.2429 15.4437 37.5566 16.2702 37.5566 17.3395C37.5566 18.2885 37.2313 19.0526 36.5807 19.6318C35.8883 20.2466 34.9333 20.554 33.7158 20.554H33.0048V14ZM28 14H31.7501V22.9866H28V14Z" fill="#333333"/>
<path d="M47.8381 16.7313C47.8381 18.0768 47.2247 18.9612 45.9979 19.3845C46.6856 19.6295 47.2038 20.0283 47.5523 20.5807C47.8543 21.0708 48.0054 21.6411 48.0054 22.2916V23H43.8509V13.9866H44.2134C45.4402 13.9866 46.3441 14.1138 46.9249 14.5593C47.5337 15.0271 47.8381 15.7511 47.8381 16.7313ZM38.9437 14H42.6938V23H38.9437V14Z" fill="#333333"/>
<path d="M54.711 14H58.5796V16.4306H57.8547C56.5954 16.4306 55.7357 16.2412 55.2756 15.8625C54.8992 15.5507 54.711 15.0472 54.711 14.3522V14ZM49.755 14H53.5051V17.5667H56.3003V19.311H53.5051V22.9866H49.755V14ZM54.704 22.3517C54.704 21.4295 55.2617 20.8035 56.3769 20.4738C56.8045 20.3491 57.3551 20.2867 58.029 20.2867H58.5796V23H54.704V22.3517Z" fill="#333333"/>
<path d="M65.0064 14H69.3072V18.4823L65.0064 14ZM60.4547 16.591H60.4129C60.4129 15.6732 60.6731 14.996 61.1936 14.5593C61.714 14.1227 62.5156 14 63.5984 14L69.3072 20.5473C69.3072 21.4295 69.0586 22.0599 68.5614 22.4386C68.0781 22.8084 67.2881 22.9933 66.1914 22.9933L60.4547 16.591ZM60.4338 18.3954L64.5743 23H60.4338V18.3954Z" fill="#333333"/>
<path d="M75.6992 14H80V18.4823L75.6992 14ZM71.1474 16.591H71.1056C71.1056 15.6732 71.3659 14.996 71.8863 14.5593C72.4068 14.1227 73.2084 14 74.2911 14L80 20.5473C80 21.4295 79.7514 22.0599 79.2542 22.4386C78.7709 22.8084 77.9809 22.9933 76.8842 22.9933L71.1474 16.591ZM71.1265 18.3954L75.267 23H71.1265V18.3954Z" fill="#333333"/>
<defs>
<linearGradient id="paint0_linear" x1="24" y1="24" x2="0" y2="0" gradientUnits="userSpaceOnUse">
<stop stop-color="#FD2952"/>
<stop offset="1" stop-color="#FD4C5D"/>
</linearGradient>
</defs>
</svg>
