<svg width="200" height="60" viewBox="0 0 200 60" fill="none" xmlns="http://www.w3.org/2000/svg">
<rect y="-6.10352e-05" width="60" height="60" rx="10" fill="url(#paint0_linear)"/>
<path d="M16 18.9999C16 15.1339 19.134 11.9999 23 11.9999H47C47.5523 11.9999 48 12.4477 48 12.9999V14.9999C48 18.8659 44.866 21.9999 41 21.9999H17C16.4477 21.9999 16 21.5522 16 20.9999V18.9999Z" fill="white"/>
<path d="M14 31.9999C14 28.1339 17.134 24.9999 21 24.9999H37C37.5523 24.9999 38 25.4477 38 25.9999V27.9999C38 31.8659 34.866 34.9999 31 34.9999H15C14.4477 34.9999 14 34.5522 14 33.9999V31.9999Z" fill="white"/>
<path d="M12 44.9999C12 41.1339 15.134 37.9999 19 37.9999H27C27.5523 37.9999 28 38.4477 28 38.9999V40.9999C28 44.8659 24.866 47.9999 21 47.9999H13C12.4477 47.9999 12 47.5522 12 46.9999V44.9999Z" fill="white"/>
<path d="M80.5807 0.999939H90.4011V7.65988H88.5609C85.3641 7.65988 83.1818 7.16068 82.0139 6.16228C81.0584 5.34006 80.5807 4.01277 80.5807 2.18041V0.999939ZM68 0.999939H77.5196V10.6551H84.615V15.2536H77.5196V24.944H68V0.999939Z" fill="#333333"/>
<path d="M107.777 0.999939H109.157C113.534 0.999939 116.424 2.94389 117.827 6.83179C118.394 8.42924 118.677 10.2675 118.677 12.3465C118.677 15.8468 117.998 18.7304 116.642 20.9974C115.038 23.652 112.543 24.9793 109.157 24.9793H107.777V0.999939ZM103.513 24.9793C99.1598 24.9793 96.2756 22.7828 94.86 18.3898C94.282 16.6044 93.993 14.59 93.993 12.3465C93.993 7.77734 95.267 4.55308 97.815 2.67373C99.3131 1.55787 101.212 0.999939 103.513 0.999939H104.893V24.9793H103.513Z" fill="#333333"/>
<path d="M123.649 9.52749C122.681 8.12972 122.198 6.13878 122.198 3.55468V0.999939H129.169L142.334 15.3593C143.077 16.1816 143.573 16.8746 143.82 17.4384C144.068 18.0022 144.251 18.519 144.369 18.9888C144.628 19.9285 144.758 21.0855 144.758 22.4598V24.9793H137.981L123.702 9.52749H123.649ZM137.097 8.52321C137.097 5.29308 137.598 3.19056 138.601 2.21564C139.131 1.69882 139.821 1.36994 140.671 1.22898C141.532 1.07629 142.576 0.999939 143.803 0.999939H144.758V3.78372C144.758 6.28561 144.098 7.9594 142.776 8.80511C141.833 9.4159 140.246 9.72129 138.017 9.72129H137.097V8.52321ZM122.198 22.2307C122.198 19.7288 122.858 18.0492 124.18 17.1917C125.123 16.5927 126.71 16.2931 128.939 16.2931H129.86V17.4912C129.86 20.7566 129.358 22.8532 128.355 23.7812C127.671 24.4155 126.675 24.7913 125.365 24.9088C124.705 24.9558 123.967 24.9793 123.153 24.9793H122.198V22.2307Z" fill="#333333"/>
<path d="M80.7046 35.0206H82.0139C85.5174 35.0206 88.1362 35.8605 89.8702 37.5401C91.4627 39.0788 92.259 41.2577 92.259 44.0767C92.259 46.5786 91.4332 48.593 89.7818 50.12C88.0241 51.741 85.6 52.5514 82.5094 52.5514H80.7046V35.0206ZM68 35.0206H77.5196V58.9647H68V35.0206Z" fill="#333333"/>
<path d="M118.358 42.4734C118.358 46.0207 116.801 48.3523 113.687 49.4681C115.433 50.1141 116.748 51.1654 117.633 52.6219C118.399 53.914 118.783 55.4174 118.783 57.1323V58.9999H108.237V34.9854H109.157C112.271 34.9854 114.566 35.5727 116.04 36.7473C117.586 37.9806 118.358 39.8893 118.358 42.4734ZM95.7802 35.0206H105.3V58.9999H95.7802V35.0206Z" fill="#333333"/>
<path d="M135.805 35.0206H145.625V41.6806H143.785C140.588 41.6806 138.406 41.1814 137.238 40.183C136.283 39.3607 135.805 38.0335 135.805 36.2011V35.0206ZM123.224 35.0206H132.744V44.6758H139.839V49.2743H132.744V58.9647H123.224V35.0206ZM135.787 57.2909C135.787 54.8595 137.203 53.2092 140.034 52.34C141.119 52.0111 142.517 51.8467 144.227 51.8467H145.625V58.9999H135.787V57.2909Z" fill="#333333"/>
<path d="M161.939 35.0206H172.857V47.0896L161.939 35.0206ZM150.385 42.1034H150.279C150.279 39.6838 150.939 37.8984 152.261 36.7473C153.582 35.5962 155.617 35.0206 158.365 35.0206L172.857 52.5338C172.857 54.8595 172.226 56.5216 170.964 57.52C169.737 58.4949 167.731 58.9823 164.947 58.9823L150.385 42.1034ZM150.332 46.8605L160.842 58.9999H150.332V46.8605Z" fill="#333333"/>
<path d="M189.083 35.0206H200V47.0896L189.083 35.0206ZM177.528 42.1034H177.422C177.422 39.6838 178.083 37.8984 179.404 36.7473C180.725 35.5962 182.76 35.0206 185.508 35.0206L200 52.5338C200 54.8595 199.369 56.5216 198.107 57.52C196.88 58.4949 194.875 58.9823 192.091 58.9823L177.528 42.1034ZM177.475 46.8605L187.986 58.9999H177.475V46.8605Z" fill="#333333"/>
<path d="M160.315 14.4427V25.0156H158.601L152.416 17.8562V25.0156H150.349V14.4427H152.063L158.248 21.602V14.4427H160.315Z" fill="#333333"/>
<path d="M171.733 23.3692V25.0156H163.321V14.4427H171.509V16.089H165.404V18.838H170.82V20.4541H165.404V23.3692H171.733Z" fill="#333333"/>
<path d="M190.291 14.4427L186.574 25.0156H184.362L181.59 17.1916L178.77 25.0156H176.543L172.825 14.4427H174.989L177.777 22.4781L180.677 14.4427H182.6L185.436 22.5234L188.304 14.4427H190.291Z" fill="#333333"/>
<path d="M195.465 25.1666C194.6 25.1666 193.761 25.0508 192.95 24.8192C192.148 24.5876 191.513 24.2805 191.043 23.8979L191.764 22.3724C192.223 22.7147 192.784 22.9967 193.446 23.2182C194.119 23.4296 194.792 23.5354 195.465 23.5354C196.299 23.5354 196.918 23.4095 197.324 23.1578C197.741 22.906 197.949 22.5737 197.949 22.1609C197.949 21.8588 197.831 21.6121 197.596 21.4208C197.372 21.2194 197.084 21.0633 196.731 20.9526C196.379 20.8418 195.898 20.7159 195.289 20.575C194.434 20.3836 193.74 20.1923 193.206 20.001C192.683 19.8097 192.229 19.5126 191.844 19.1099C191.47 18.697 191.283 18.1432 191.283 17.4484C191.283 16.8644 191.449 16.3357 191.78 15.8625C192.122 15.3791 192.629 14.9965 193.302 14.7145C193.986 14.4326 194.819 14.2916 195.802 14.2916C196.485 14.2916 197.158 14.3722 197.821 14.5333C198.483 14.6944 199.055 14.926 199.535 15.2281L198.878 16.7536C198.387 16.4817 197.874 16.2753 197.34 16.1343C196.806 15.9934 196.288 15.9229 195.786 15.9229C194.963 15.9229 194.349 16.0538 193.943 16.3156C193.548 16.5774 193.35 16.9248 193.35 17.3578C193.35 17.6599 193.462 17.9066 193.687 18.0979C193.922 18.2892 194.215 18.4402 194.568 18.551C194.921 18.6618 195.401 18.7876 196.01 18.9286C196.843 19.1099 197.527 19.3012 198.061 19.5026C198.595 19.6939 199.049 19.9909 199.423 20.3937C199.808 20.7965 200 21.3402 200 22.025C200 22.609 199.829 23.1376 199.487 23.6109C199.156 24.0842 198.649 24.4618 197.965 24.7437C197.281 25.0257 196.448 25.1666 195.465 25.1666Z" fill="#333333"/>
<path d="M155.199 0.999939C156.103 0.999939 156.92 1.21175 157.652 1.63537C158.393 2.05899 158.975 2.64034 159.4 3.37943C159.824 4.1095 160.037 4.92519 160.037 5.82651C160.037 6.72783 159.824 7.54804 159.4 8.28712C158.975 9.01719 158.393 9.59854 157.652 10.0312C156.911 10.4548 156.094 10.6666 155.199 10.6666C154.296 10.6666 153.474 10.4548 152.733 10.0312C152.002 9.59854 151.419 9.01719 150.985 8.28712C150.561 7.54804 150.349 6.72783 150.349 5.82651C150.349 4.92519 150.561 4.1095 150.985 3.37943C151.41 2.64034 151.993 2.05899 152.733 1.63537C153.474 1.21175 154.296 0.999939 155.199 0.999939ZM155.199 9.99062C155.976 9.99062 156.676 9.81035 157.3 9.44982C157.932 9.08028 158.429 8.58005 158.79 7.94912C159.151 7.30919 159.332 6.60165 159.332 5.82651C159.332 5.05138 159.151 4.34835 158.79 3.71742C158.429 3.07748 157.932 2.57725 157.3 2.21672C156.676 1.85619 155.976 1.67593 155.199 1.67593C154.423 1.67593 153.718 1.85619 153.086 2.21672C152.453 2.57725 151.957 3.07748 151.595 3.71742C151.234 4.34835 151.053 5.05138 151.053 5.82651C151.053 6.60165 151.234 7.30919 151.595 7.94912C151.957 8.58005 152.453 9.08028 153.086 9.44982C153.718 9.81035 154.423 9.99062 155.199 9.99062ZM156.175 6.35379C156.536 6.44392 156.807 6.66023 156.988 7.00274L157.964 8.67919H156.595L155.565 6.85402C155.475 6.70981 155.38 6.61066 155.281 6.55658C155.181 6.49349 155.05 6.46194 154.888 6.46194H154.305V8.67919H153.072V2.97383H155.565C156.216 2.97383 156.717 3.12706 157.069 3.43351C157.422 3.73995 157.598 4.16358 157.598 4.70437C157.598 5.137 157.471 5.50204 157.218 5.79947C156.974 6.0879 156.627 6.27267 156.175 6.35379ZM155.416 5.55612C155.75 5.55612 155.999 5.49302 156.161 5.36684C156.324 5.23164 156.405 5.02434 156.405 4.74493C156.405 4.46552 156.324 4.26272 156.161 4.13654C156.008 4.00134 155.76 3.93374 155.416 3.93374H154.292V5.55612H155.416Z" fill="#333333"/>
<defs>
<linearGradient id="paint0_linear" x1="60" y1="59.9999" x2="0" y2="-6.10352e-05" gradientUnits="userSpaceOnUse">
<stop stop-color="#FD2952"/>
<stop offset="1" stop-color="#FD4C5D"/>
</linearGradient>
</defs>
</svg>
